REM MD5 afd713eabf3322f2d1bb62194f461109
FILE "Euro Demo 11-98 (Germany).bin" BINARY
  TRACK 01 MODE2/2352
    INDEX 01 00:00:00
  TRACK 02 AUDIO
    INDEX 00 42:32:70
    INDEX 01 42:34:70
  TRACK 03 AUDIO
    INDEX 00 43:06:70
    INDEX 01 43:08:70
  TRACK 04 AUDIO
    INDEX 00 47:09:70
    INDEX 01 47:11:70
  TRACK 05 AUDIO
    INDEX 00 50:17:32
    INDEX 01 50:19:32
REM LEADOUT 53:20:63
